<svg id="Layer_1" enable-background="new 0 0 512 512" height="512" viewBox="0 0 512 512" width="512" xmlns="http://www.w3.org/2000/svg"><g><g><path d="m256 91c-99.528 0-180.5 80.972-180.5 180.5s80.972 180.5 180.5 180.5 180.5-80.972 180.5-180.5-80.972-180.5-180.5-180.5zm0 346c-91.257 0-165.5-74.243-165.5-165.5s74.243-165.5 165.5-165.5 165.5 74.243 165.5 165.5-74.243 165.5-165.5 165.5z"/><path d="m256 139.614c4.143 0 7.5-3.358 7.5-7.5v-9.006c0-4.142-3.357-7.5-7.5-7.5s-7.5 3.358-7.5 7.5v9.006c0 4.142 3.357 7.5 7.5 7.5z"/><path d="m256 396.602c-4.143 0-7.5 3.358-7.5 7.5v9.006c0 4.142 3.357 7.5 7.5 7.5s7.5-3.358 7.5-7.5v-9.006c0-4.143-3.357-7.5-7.5-7.5z"/><path d="m181.358 154.344c1.39 2.406 3.91 3.751 6.502 3.751 1.272 0 2.563-.325 3.744-1.007 3.587-2.071 4.815-6.658 2.744-10.245l-4.504-7.799c-2.071-3.587-6.658-4.816-10.246-2.744-3.587 2.071-4.815 6.658-2.744 10.245z"/><path d="m330.342 382.392c-2.071-3.587-6.66-4.817-10.245-2.745-3.587 2.071-4.816 6.658-2.745 10.245l4.503 7.799c1.389 2.406 3.91 3.751 6.502 3.751 1.272 0 2.563-.324 3.743-1.006 3.587-2.071 4.816-6.658 2.745-10.245z"/><path d="m126.526 202.663 7.8 4.503c1.182.682 2.471 1.006 3.743 1.006 2.592 0 5.113-1.346 6.502-3.751 2.071-3.587.842-8.174-2.745-10.245l-7.8-4.503c-3.59-2.073-8.175-.842-10.245 2.745-2.071 3.587-.842 8.174 2.745 10.245z"/><path d="m385.174 334.673-7.8-4.503c-3.59-2.071-8.175-.842-10.245 2.745-2.071 3.587-.842 8.174 2.745 10.245l7.8 4.503c1.182.682 2.471 1.006 3.743 1.006 2.592 0 5.113-1.346 6.502-3.751 2.071-3.587.842-8.174-2.745-10.245z"/><path d="m127.506 268.928c0-4.142-3.357-7.5-7.5-7.5h-9.006c-4.143 0-7.5 3.358-7.5 7.5s3.357 7.5 7.5 7.5h9.006c4.142 0 7.5-3.358 7.5-7.5z"/><path d="m401 261.428h-9.006c-4.143 0-7.5 3.358-7.5 7.5s3.357 7.5 7.5 7.5h9.006c4.143 0 7.5-3.358 7.5-7.5s-3.357-7.5-7.5-7.5z"/><path d="m134.735 330.58-7.799 4.503c-3.587 2.071-4.816 6.658-2.745 10.245 1.39 2.406 3.91 3.751 6.502 3.751 1.272 0 2.563-.325 3.743-1.006l7.799-4.503c3.587-2.071 4.816-6.658 2.745-10.245-2.071-3.588-6.66-4.815-10.245-2.745z"/><path d="m374.041 208.583c1.272 0 2.563-.325 3.743-1.006l7.8-4.503c3.587-2.071 4.816-6.658 2.745-10.245-2.071-3.588-6.66-4.814-10.245-2.745l-7.8 4.503c-3.587 2.071-4.816 6.658-2.745 10.245 1.39 2.405 3.91 3.751 6.502 3.751z"/><path d="m192.314 380.357c-3.589-2.074-8.174-.844-10.246 2.744l-4.504 7.799c-2.071 3.587-.843 8.174 2.744 10.245 1.182.683 2.472 1.007 3.744 1.007 2.592 0 5.112-1.345 6.502-3.751l4.504-7.799c2.072-3.586.843-8.173-2.744-10.245z"/><path d="m332.81 137.009c-3.589-2.072-8.175-.842-10.245 2.745l-4.503 7.799c-2.071 3.587-.842 8.174 2.745 10.245 1.182.682 2.471 1.006 3.743 1.006 2.592 0 5.113-1.346 6.502-3.751l4.503-7.799c2.071-3.587.841-8.174-2.745-10.245z"/><path d="m466.596 467h-132.57c77.552-31.062 132.474-106.984 132.474-195.5 0-108.47-82.47-198.03-188-209.296v-10.226c2.548-1.309 4.89-3.014 6.916-5.047 5.213-5.199 8.084-12.1 8.084-19.431 0-15.164-12.337-27.5-27.5-27.5h-20c-7.331 0-14.231 2.871-19.416 8.069-5.213 5.199-8.084 12.1-8.084 19.431 0 10.42 5.963 19.812 15 24.455v10.249c-105.53 11.266-188 100.826-188 209.296 0 88.516 54.922 164.438 132.474 195.5h-132.57c-6.564 0-11.904 5.34-11.904 11.904 0 18.249 14.847 33.096 33.096 33.096h378.809c18.249 0 33.096-14.847 33.096-33.096-.001-6.564-5.341-11.904-11.905-11.904zm-229.406-448.324c2.365-2.37 5.494-3.676 8.81-3.676h20c6.893 0 12.5 5.607 12.5 12.5 0 3.316-1.305 6.444-3.692 8.826-.843-1.291-1.805-2.509-2.904-3.609-4.248-4.248-9.896-6.587-15.903-6.587-7.824 0-14.792 4.01-18.829 10.18-2.285-2.293-3.671-5.432-3.671-8.81-.001-3.317 1.305-6.445 3.689-8.824zm11.31 29.954c0-.285.013-.52.037-.696.009-.062.017-.124.024-.186.435-3.773 3.632-6.619 7.438-6.619 2.001 0 3.882.779 5.296 2.193 1.212 1.212 1.952 2.736 2.142 4.409.007.067.016.135.025.202.024.176.037.411.037.696v12.518c-2.49-.087-4.987-.147-7.499-.147s-5.009.06-7.5.148zm-188 222.87c0-107.799 87.701-195.5 195.5-195.5s195.5 87.701 195.5 195.5-87.701 195.5-195.5 195.5-195.5-87.701-195.5-195.5zm384.904 225.5h-378.808c-8.923 0-16.357-6.492-17.831-15h414.471c-1.474 8.508-8.909 15-17.832 15z"/><path d="m331.16 209.569c2.224-3.794 1.604-8.616-1.506-11.725s-7.932-3.727-11.723-1.503l-37.955 22.25c-7.495-3.401-15.699-5.19-23.976-5.19-32.036 0-58.1 26.063-58.1 58.1 0 8.278 1.789 16.481 5.189 23.976l-22.25 37.955c-2.224 3.794-1.604 8.616 1.506 11.725 1.862 1.862 4.338 2.831 6.839 2.831 1.676 0 3.362-.435 4.884-1.327l37.955-22.25c7.495 3.401 15.699 5.19 23.976 5.19 32.036 0 58.1-26.063 58.1-58.1 0-8.278-1.789-16.481-5.189-23.976zm-57.706 68.778-24.301-24.301 58.727-34.427zm-60.554-6.847c0-23.766 19.334-43.1 43.1-43.1 2.146 0 4.281.181 6.392.498l-29.2 17.117c-.057.033-.107.074-.163.109-.127.079-.25.162-.372.248-.112.079-.222.16-.329.245-.115.091-.226.187-.336.285-.103.092-.203.185-.301.282-.103.103-.202.209-.299.318-.093.104-.183.209-.269.318-.09.113-.175.229-.259.347-.082.116-.161.234-.236.354-.036.058-.079.111-.114.171l-17.116 29.198c-.317-2.11-.498-4.245-.498-6.39zm25.646-6.847 24.301 24.301-58.727 34.426zm60.554 6.847c0 23.766-19.334 43.1-43.1 43.1-2.146 0-4.281-.181-6.392-.498l29.2-17.117c.057-.033.107-.074.163-.109.127-.079.25-.162.372-.248.112-.079.222-.16.329-.245.115-.091.226-.187.336-.285.103-.092.203-.185.301-.282.103-.103.202-.209.299-.318.093-.104.183-.209.269-.318.09-.113.175-.229.259-.347.082-.116.161-.234.236-.354.036-.058.079-.111.114-.171l17.116-29.198c.317 2.11.498 4.245.498 6.39z"/></g></g></svg>