<svg xmlns="http://www.w3.org/2000/svg" viewBox="0 0 26 26" width="26" height="26">
	<style>
		tspan { white-space:pre }
		.shp0 { fill: #030104 } 
	</style>
	<g id="Layer">
		<path id="Layer" fill-rule="evenodd" class="shp0" d="M26 4.88L26 21.13C26 23.82 23.82 26 21.13 26L4.88 26C2.18 26 0 23.82 0 21.13L0 4.88C0 2.18 2.18 0 4.88 0L21.13 0C23.82 0 26 2.18 26 4.88ZM20.79 10.97L18.03 10.97L18.04 9.26C18.04 8.45 18.11 8.02 19.27 8.02L21.03 8.02L21.03 5L18.01 5C15.02 5 13.97 6.5 13.97 9.04L13.97 10.97L12.39 10.97L12.39 14L13.97 14L13.97 23.01L18.03 23.01L18.03 14L20.46 14L20.79 10.97Z" />
	</g>
</svg>