<svg xmlns="http://www.w3.org/2000/svg" viewBox="0 0 170 170" width="170" height="170">
	<style>
		tspan { white-space:pre }
		.shp0 { fill: #000000 } 
	</style>
	<g id="Layer">
		<path id="Layer" fill-rule="evenodd" class="shp0" d="M169.06 46.65L169.06 122.41C169.06 148.13 148.13 169.06 122.41 169.06L46.65 169.06C20.93 169.06 0 148.13 0 122.41L0 46.65C0 20.93 20.93 0 46.65 0L122.41 0C148.13 0 169.06 20.93 169.06 46.65ZM154.06 122.41L154.06 46.65C154.06 29.2 139.86 15 122.41 15L46.65 15C29.2 15 15 29.2 15 46.65L15 122.41C15 139.86 29.2 154.06 46.65 154.06L122.41 154.06C139.86 154.06 154.06 139.86 154.06 122.41L154.06 122.41Z" />
		<path id="Layer" fill-rule="evenodd" class="shp0" d="M128.09 84.53C128.09 108.55 108.55 128.09 84.53 128.09C60.51 128.09 40.97 108.55 40.97 84.53C40.97 60.51 60.51 40.97 84.53 40.97C108.55 40.97 128.09 60.51 128.09 84.53ZM113.09 84.53C113.09 68.78 100.28 55.97 84.53 55.97C68.78 55.97 55.97 68.78 55.97 84.53C55.97 100.28 68.78 113.09 84.53 113.09C100.28 113.09 113.09 100.28 113.09 84.53Z" />
		<path id="Layer" class="shp0" d="M129.92 28.25C127.03 28.25 124.19 29.42 122.15 31.47C120.1 33.51 118.92 36.35 118.92 39.25C118.92 42.14 120.1 44.98 122.15 47.03C124.19 49.07 127.03 50.25 129.92 50.25C132.82 50.25 135.65 49.07 137.7 47.03C139.75 44.98 140.92 42.14 140.92 39.25C140.92 36.35 139.75 33.51 137.7 31.47C135.66 29.42 132.82 28.25 129.92 28.25Z" />
	</g>
</svg>