<?xml version="1.0" encoding="iso-8859-1"?>
<!-- Generator: Adobe Illustrator 19.0.0, SVG Export Plug-In . SVG Version: 6.00 Build 0)  -->
<svg version="1.1" id="Layer_1" xmlns="http://www.w3.org/2000/svg" xmlns:xlink="http://www.w3.org/1999/xlink" x="0px" y="0px"
	 viewBox="0 0 455 455" style="enable-background:new 0 0 455 455;" xml:space="preserve">
<g>
	<path d="M47.436,159.015l-25.824,25.824l21.213,21.213l25.824-25.824c7.872,5.213,16.777,8.989,26.352,10.933v36.503h30v-36.503
		c9.575-1.944,18.48-5.72,26.352-10.933l25.824,25.824l21.213-21.213l-25.824-25.824c5.213-7.871,8.989-16.777,10.932-26.351H220
		v-30h-36.503c-1.944-9.574-5.719-18.48-10.932-26.351l25.824-25.824l-21.213-21.213L151.352,55.1
		c-7.872-5.213-16.777-8.989-26.352-10.933V7.664H95v36.503c-9.575,1.944-18.48,5.72-26.352,10.933L42.824,29.276L21.611,50.489
		l25.824,25.824c-5.213,7.871-8.989,16.777-10.932,26.351H0v30h36.503C38.447,142.238,42.223,151.144,47.436,159.015z"/>
	<polygon points="0,447.336 260.305,447.336 130.153,306.705 	"/>
	<polygon points="227.168,337.51 266.497,309.177 305.834,337.511 334.904,316.571 266.503,242.664 198.102,316.572 	"/>
	<polygon points="355.435,338.755 305.834,374.483 266.499,346.15 231.121,371.636 282.323,426.959 301.181,447.336 455,447.336 
		455,446.336 	"/>
</g>
<g>
</g>
<g>
</g>
<g>
</g>
<g>
</g>
<g>
</g>
<g>
</g>
<g>
</g>
<g>
</g>
<g>
</g>
<g>
</g>
<g>
</g>
<g>
</g>
<g>
</g>
<g>
</g>
<g>
</g>
</svg>
